# xmcd
#
# Track frame offsets:
#	150
#	16310
#	34698
#	51865
#	69118
#	79146
#	101342
#	115176
#	136197
#	155942
#	172786
#	186969
#	201379
#	212600
#	225126
#	243173
#	264407
#	278855
#	294200
#	311328
#
# Disc length: 4366 seconds
#
# Revision: 0
# Processed by: cddbd v1.5.2PL0 Copyright (c) Steve Scherf et al.
# Submitted via: EasyCDDAExtractor 12.0.1.1
#
DISCID=04110c14
DTITLE=Emmylou Harris
DYEAR=2000
DGENRE=Country
TTITLE0=(You Never Can Tell) Cést La V
TTITLE1=Hello Stranger
TTITLE2=I'll Be Your San Antone Rose
TTITLE3=Only A Woman's Heart (with Mary Black)
TTITLE4=Oh, How I Miss You Tonight (with Jim Reeves)
TTITLE5=Pancho And Lefty
TTITLE6=Pledging My Love
TTITLE7=Price You Pay
TTITLE8=Rose Of Cimmarron
TTITLE9=Save The Last Dance For Me
TTITLE10=Emmylou Harris - So Sad
TTITLE11=Sweet Dreams
TTITLE12=Tennessee Waltz
TTITLE13=The Last Cheater's Waltz
TTITLE14=Together Again
TTITLE15=Tulsa Queen
TTITLE16=Two More Bottles of Wine
TTITLE17=Wheels
TTITLE18=White Line
TTITLE19=If I Needed You (with Don Williams)
EXTD=
EXTT0=
EXTT1=
EXTT2=
EXTT3=
EXTT4=
EXTT5=
EXTT6=
EXTT7=
EXTT8=
EXTT9=
EXTT10=
EXTT11=
EXTT12=
EXTT13=
EXTT14=
EXTT15=
EXTT16=
EXTT17=
EXTT18=
EXTT19=
PLAYORDER=
